<svg width="90" height="90" viewBox="0 0 90 90" fill="none" xmlns="http://www.w3.org/2000/svg">
<mask id="path-1-inside-1_833_3745" fill="white">
<path d="M25.8879 47.45H58.1453L44.0525 61.9217C42.9263 63.0783 42.9263 64.9762 44.0525 66.1328C44.3197 66.4077 44.637 66.6258 44.9864 66.7746C45.3358 66.9234 45.7103 67 46.0885 67C46.4667 67 46.8412 66.9234 47.1906 66.7746C47.5399 66.6258 47.8573 66.4077 48.1244 66.1328L67.1555 46.5901C67.4232 46.3157 67.6356 45.9898 67.7805 45.6311C67.9254 45.2723 68 44.8878 68 44.4994C68 44.111 67.9254 43.7264 67.7805 43.3677C67.6356 43.0089 67.4232 42.683 67.1555 42.4087L48.1244 22.866C47.8571 22.5914 47.5397 22.3736 47.1903 22.2251C46.841 22.0765 46.4666 22 46.0885 22C45.7104 22 45.336 22.0765 44.9866 22.2251C44.6373 22.3736 44.3199 22.5914 44.0525 22.866C43.7852 23.1405 43.5731 23.4665 43.4284 23.8252C43.2837 24.1839 43.2092 24.5684 43.2092 24.9567C43.2092 25.3449 43.2837 25.7294 43.4284 26.0881C43.5731 26.4469 43.7852 26.7728 44.0525 27.0474L58.1453 41.519H25.8879C24.2995 41.519 23 42.8535 23 44.4845C23 46.1156 24.2995 47.45 25.8879 47.45Z"/>
</mask>
<path d="M58.1453 47.45L62.4439 51.636L72.3632 41.45H58.1453V47.45ZM44.0525 61.9217L48.3511 66.1077V66.1077L44.0525 61.9217ZM44.0525 66.1328L48.3554 61.9512L48.3511 61.9468L44.0525 66.1328ZM46.0885 67V73V67ZM48.1244 66.1328L43.8259 61.9468L43.8216 61.9512L48.1244 66.1328ZM67.1555 46.5901L62.8612 42.3996L62.8569 42.4041L67.1555 46.5901ZM68 44.4994H74H68ZM67.1555 42.4087L62.8569 46.5947L62.8612 46.5991L67.1555 42.4087ZM48.1244 22.866L52.423 18.68V18.68L48.1244 22.866ZM46.0885 22V16V22ZM43.2092 24.9567H37.2092H43.2092ZM44.0525 27.0474L39.754 31.2334L44.0525 27.0474ZM58.1453 41.519V47.519H72.3632L62.4439 37.333L58.1453 41.519ZM25.8879 53.4501H58.1453V41.45H25.8879V53.4501ZM53.8468 43.2641L39.754 57.7357L48.3511 66.1077L62.4439 51.636L53.8468 43.2641ZM39.754 57.7357C36.3591 61.2219 36.3591 66.8326 39.754 70.3188L48.3511 61.9468C49.4934 63.1198 49.4934 64.9347 48.3511 66.1077L39.754 57.7357ZM39.7497 70.3143C40.5666 71.1549 41.5456 71.8306 42.635 72.2947L47.3378 61.2545C47.7285 61.4209 48.0728 61.6604 48.3554 61.9512L39.7497 70.3143ZM42.635 72.2947C43.7248 72.7589 44.8988 73 46.0885 73V61C46.5217 61 46.9467 61.0879 47.3378 61.2545L42.635 72.2947ZM46.0885 73C47.2781 73 48.4521 72.7589 49.5419 72.2947L44.8392 61.2545C45.2303 61.0879 45.6553 61 46.0885 61V73ZM49.5419 72.2947C50.6313 71.8306 51.6103 71.1549 52.4273 70.3143L43.8216 61.9512C44.1042 61.6604 44.4485 61.4209 44.8392 61.2545L49.5419 72.2947ZM52.423 70.3188L71.454 50.776L62.8569 42.4041L43.8259 61.9468L52.423 70.3188ZM71.4497 50.7805C72.2681 49.9418 72.9091 48.9543 73.3437 47.8784L62.2172 43.3838C62.362 43.0254 62.5783 42.6896 62.8612 42.3997L71.4497 50.7805ZM73.3437 47.8784C73.7782 46.8027 74 45.6549 74 44.4994H62C62 44.1206 62.0726 43.742 62.2172 43.3838L73.3437 47.8784ZM74 44.4994C74 43.3438 73.7782 42.196 73.3437 41.1204L62.2172 45.615C62.0726 45.2568 62 44.8782 62 44.4994H74ZM73.3437 41.1204C72.9091 40.0445 72.2681 39.0569 71.4497 38.2183L62.8612 46.5991C62.5783 46.3091 62.362 45.9734 62.2172 45.615L73.3437 41.1204ZM71.454 38.2227L52.423 18.68L43.8259 27.052L62.8569 46.5947L71.454 38.2227ZM52.423 18.68C51.6059 17.841 50.6273 17.1668 49.5388 16.7038L44.8418 27.7464C44.452 27.5805 44.1082 27.3419 43.8259 27.052L52.423 18.68ZM49.5388 16.7038C48.4499 16.2406 47.277 16 46.0885 16V28C45.6562 28 45.2321 27.9123 44.8418 27.7464L49.5388 16.7038ZM46.0885 16C44.9 16 43.7271 16.2406 42.6382 16.7038L47.3351 27.7464C46.9449 27.9123 46.5208 28 46.0885 28V16ZM42.6382 16.7038C41.5496 17.1668 40.571 17.841 39.754 18.68L48.3511 27.052C48.0688 27.3419 47.725 27.5805 47.3351 27.7464L42.6382 16.7038ZM39.754 18.68C38.9373 19.5186 38.2977 20.5057 37.864 21.5807L48.9928 26.0697C48.8485 26.4273 48.633 26.7624 48.3511 27.052L39.754 18.68ZM37.864 21.5807C37.4305 22.6555 37.2092 23.8022 37.2092 24.9567H49.2092C49.2092 25.3346 49.1369 25.7123 48.9928 26.0697L37.864 21.5807ZM37.2092 24.9567C37.2092 26.1111 37.4305 27.2578 37.864 28.3326L48.9928 23.8436C49.1369 24.201 49.2092 24.5787 49.2092 24.9567H37.2092ZM37.864 28.3326C38.2977 29.4077 38.9373 30.3947 39.754 31.2334L48.3511 22.8614C48.633 23.1509 48.8485 23.486 48.9928 23.8436L37.864 28.3326ZM39.754 31.2334L53.8468 45.705L62.4439 37.333L48.3511 22.8614L39.754 31.2334ZM58.1453 35.519H25.8879V47.519H58.1453V35.519ZM25.8879 35.519C20.8368 35.519 17 39.6908 17 44.4845H29C29 46.0162 27.7623 47.519 25.8879 47.519V35.519ZM17 44.4845C17 49.2782 20.8368 53.4501 25.8879 53.4501V41.45C27.7623 41.45 29 42.9529 29 44.4845H17Z" fill="#404452" mask="url(#path-1-inside-1_833_3745)"/>
</svg>
