<svg width="120" height="120" viewBox="0 0 120 120" fill="none" xmlns="http://www.w3.org/2000/svg">
<path d="M98.653 63.3199C99.4084 63.3481 100.162 63.2236 100.868 62.954C101.574 62.6844 102.219 62.2751 102.763 61.7506C103.308 61.2261 103.741 60.5973 104.037 59.9016C104.332 59.2059 104.485 58.4577 104.485 57.7017C104.485 56.9458 104.332 56.1976 104.037 55.5019C103.741 54.8062 103.308 54.1773 102.763 53.6529C102.219 53.1284 101.574 52.7191 100.868 52.4495C100.162 52.1798 99.4084 52.0554 98.653 52.0836C98.5316 52.0836 98.4181 52.1071 98.2928 52.1149L96.4058 44.6763C97.0297 44.208 97.5488 43.6144 97.9299 42.9337C98.3111 42.253 98.5457 41.5002 98.6188 40.7235C98.6919 39.9468 98.6019 39.1634 98.3545 38.4235C98.1072 37.6836 97.7079 37.0036 97.1823 36.4271C96.6568 35.8505 96.0165 35.3902 95.3026 35.0756C94.5887 34.761 93.817 34.5991 93.0368 34.6002C92.2567 34.6013 91.4854 34.7655 90.7725 35.0821C90.0595 35.3988 89.4205 35.8609 88.8966 36.439L69.7519 27.54C69.953 26.9714 70.0588 26.3735 70.0651 25.7704C70.0849 25.0199 69.9542 24.273 69.6807 23.5738C69.4072 22.8746 68.9964 22.2373 68.4725 21.6995C67.9487 21.1616 67.3225 20.7341 66.6307 20.4423C65.939 20.1504 65.1958 20 64.445 20C63.6943 20 62.9511 20.1504 62.2594 20.4423C61.5676 20.7341 60.9414 21.1616 60.4176 21.6995C59.8937 22.2373 59.4829 22.8746 59.2094 23.5738C58.9359 24.273 58.8051 25.0199 58.825 25.7704C58.8305 25.9621 58.8501 26.1532 58.8837 26.342L46.6921 30.0809C45.8502 29.0348 44.6604 28.3262 43.3396 28.0842C42.0188 27.8422 40.655 28.083 39.497 28.7627C38.3389 29.4423 37.4637 30.5156 37.0309 31.7867C36.5981 33.0578 36.6366 34.4422 37.1394 35.6873L25.6682 45.9291C24.8046 45.3955 23.8097 45.1122 22.7945 45.1109C21.4515 45.1044 20.1509 45.5806 19.1295 46.4527C18.1082 47.3248 17.4341 48.5348 17.2301 49.8623C17.0261 51.1897 17.3058 52.5463 18.0181 53.6848C18.7304 54.8234 19.8281 55.6681 21.1111 56.0652L20.3515 63.3708C19.4954 63.4895 18.6783 63.8045 17.9641 64.2913C17.2498 64.7781 16.6578 65.4234 16.2343 66.1769C15.8108 66.9304 15.5672 67.7715 15.5226 68.6347C15.478 69.4979 15.6336 70.3597 15.9772 71.1528C16.3208 71.9459 16.8432 72.6488 17.5034 73.2066C18.1637 73.7644 18.9439 74.162 19.7833 74.3684C20.6226 74.5747 21.4983 74.5841 22.3419 74.396C23.1855 74.2078 23.9742 73.8272 24.6464 73.2837L28.4283 74.9476L28.4166 75.0651C28.4222 76.4651 28.9507 77.8125 29.8984 78.843C30.8461 79.8735 32.1446 80.5127 33.5393 80.6353C34.934 80.7578 36.3241 80.3549 37.437 79.5055C38.5499 78.656 39.3053 77.4215 39.555 76.0439H43.8772C44.2164 77.2654 44.9602 78.3357 45.9869 79.0795C47.0135 79.8233 48.2622 80.1966 49.5287 80.1384C50.7951 80.0802 52.0043 79.5939 52.9584 78.7591C53.9124 77.9242 54.5549 76.7902 54.7807 75.5427L66.9448 75.9421C67.8344 76.712 68.9481 77.1753 70.1213 77.2634C71.2945 77.3516 72.4649 77.0599 73.4595 76.4315C80.3254 80.1796 86.1171 85.6235 90.2826 92.2444C90.0059 92.9108 89.8636 93.6253 89.8637 94.3468C89.8583 95.3076 90.0993 96.2537 90.5636 97.0949C91.0279 97.936 91.7001 98.6441 92.5159 99.1517C93.3317 99.6592 94.2639 99.9492 95.2237 99.9939C96.1834 100.039 97.1386 99.8368 97.9981 99.4074C98.8576 98.978 99.5928 98.3355 100.133 97.5413C100.674 96.747 101.002 95.8274 101.086 94.8703C101.17 93.9132 101.008 92.9505 100.614 92.0741C100.22 91.1977 99.6084 90.4368 98.837 89.8641C96.8681 87.0035 95.4867 83.7804 94.7732 80.3818C95.737 80.0757 96.5993 79.5128 97.2674 78.7537C97.9356 77.9945 98.3843 77.0677 98.5654 76.0727C98.7465 75.0778 98.6532 74.0523 98.2955 73.1063C97.9378 72.1604 97.3291 71.3298 96.535 70.7037L98.653 63.3199ZM100.865 57.7017C100.864 58.1381 100.734 58.5645 100.491 58.927C100.248 59.2895 99.9034 59.572 99.5001 59.7386C99.0968 59.9052 98.6532 59.9486 98.2252 59.8633C97.7972 59.778 97.4041 59.5678 97.0956 59.2592C96.787 58.9506 96.5768 58.5575 96.4914 58.1296C96.4061 57.7016 96.4495 57.2579 96.6162 56.8546C96.7828 56.4513 97.0652 56.1064 97.4277 55.8635C97.7902 55.6206 98.2166 55.4905 98.653 55.4897C99.2397 55.4897 99.8023 55.7228 100.217 56.1376C100.632 56.5524 100.865 57.1151 100.865 57.7017ZM96.3862 52.5652C95.4679 52.9737 94.6766 53.6218 94.0952 54.4415C93.5138 55.2613 93.1638 56.2224 93.0819 57.2241H88.6931C88.628 56.4593 88.4065 55.7161 88.0421 55.0406C87.6777 54.3651 87.1784 53.7717 86.575 53.2973L92.0835 45.7294C92.9271 45.899 93.8003 45.8451 94.6166 45.5728L96.3862 52.5652ZM87.4833 74.3604L76.1374 71.4554C76.0921 70.1891 75.6155 68.9764 74.7867 68.018L79.3674 61.8517C80.0713 62.5123 80.9394 62.9721 81.8813 63.1835C82.8232 63.3949 83.8045 63.35 84.7232 63.0536L89.6248 70.6254C89.0391 71.0758 88.5482 71.6378 88.1807 72.2788C87.8131 72.9198 87.5761 73.6273 87.4833 74.3604ZM46.5316 37.316L62.509 45.6785C62.1706 46.6716 62.1474 47.7451 62.4425 48.7519L52.185 54.0255C51.6623 53.4184 51.0154 52.9305 50.288 52.5948C49.5606 52.2591 48.7696 52.0835 47.9685 52.0797C47.9215 52.0823 47.8758 52.0875 47.8314 52.0954L44.1395 38.9016C45.0611 38.5898 45.8856 38.0434 46.5316 37.316ZM90.1808 45.0247L84.8289 52.3694C83.9264 52.0563 82.9566 51.99 82.0198 52.1772C81.0831 52.3644 80.2133 52.7984 79.5005 53.4343L73.2716 48.7362C73.4861 48.0661 73.5331 47.3537 73.4086 46.6612L87.9218 42.5113C88.4014 43.5575 89.1897 44.4318 90.1808 45.0169M83.118 59.902C82.6814 59.9012 82.2549 59.7711 81.8923 59.528C81.5297 59.2849 81.2473 58.9398 81.0808 58.5362C80.9142 58.1327 80.8711 57.6888 80.9567 57.2607C81.0424 56.8327 81.253 56.4396 81.5619 56.1312C81.8709 55.8228 82.2643 55.6128 82.6926 55.528C83.1208 55.4431 83.5646 55.487 83.9678 55.6543C84.3711 55.8215 84.7157 56.1045 84.9581 56.4676C85.2006 56.8306 85.33 57.2574 85.33 57.6939C85.329 58.2799 85.0955 58.8415 84.6807 59.2555C84.266 59.6695 83.704 59.902 83.118 59.902ZM67.8531 49.5271C67.4167 49.5263 66.9904 49.3962 66.6278 49.1533C66.2653 48.9104 65.9829 48.5655 65.8163 48.1622C65.6496 47.7588 65.6062 47.3152 65.6916 46.8872C65.7769 46.4593 65.9871 46.0662 66.2957 45.7576C66.6042 45.449 66.9973 45.2388 67.4253 45.1535C67.8533 45.0682 68.2969 45.1116 68.7002 45.2782C69.1035 45.4448 69.4484 45.7272 69.6914 46.0898C69.9343 46.4523 70.0644 46.8787 70.0651 47.315C70.0641 47.901 69.8306 48.4627 69.4159 48.8766C69.0011 49.2906 68.4391 49.5271 67.8531 49.5271ZM47.9645 55.478C48.4011 55.478 48.8279 55.6074 49.1909 55.8498C49.5539 56.0923 49.8369 56.4369 50.0042 56.8402C50.1714 57.2434 50.2154 57.6872 50.1305 58.1154C50.0456 58.5436 49.8357 58.9371 49.5273 59.2461C49.2189 59.555 48.8258 59.7656 48.3977 59.8513C47.9696 59.9369 47.5258 59.8937 47.1222 59.7272C46.7187 59.5607 46.3736 59.2783 46.1305 58.9157C45.8874 58.5531 45.7572 58.1265 45.7564 57.69C45.7564 57.1033 45.9895 56.5407 46.4043 56.1259C46.8192 55.711 47.3818 55.478 47.9685 55.478M53.5905 57.69C53.5887 57.005 53.4586 56.3264 53.2068 55.6894L63.2607 50.5215C63.7761 51.2645 64.4637 51.8716 65.2648 52.2909C66.066 52.7102 66.9567 52.9293 67.861 52.9293L67.9549 52.9214L66.2558 67.2506L50.9635 69.1847C50.6571 69.0867 50.3427 69.016 50.0239 68.9732L48.8611 63.2181C50.177 63.0073 51.3751 62.3356 52.2414 61.3229C53.1078 60.3103 53.5859 59.0227 53.5905 57.69ZM49.2683 72.3167C49.7047 72.3175 50.131 72.4475 50.4935 72.6905C50.8561 72.9334 51.1385 73.2783 51.3051 73.6816C51.4718 74.0849 51.5152 74.5286 51.4298 74.9566C51.3445 75.3845 51.1343 75.7776 50.8257 76.0862C50.5171 76.3947 50.1241 76.605 49.6961 76.6903C49.2681 76.7756 48.8245 76.7322 48.4212 76.5656C48.0178 76.3989 47.6729 76.1165 47.43 75.754C47.1871 75.3915 47.057 74.9651 47.0562 74.5287C47.0562 73.9421 47.2893 73.3794 47.7041 72.9646C48.119 72.5498 48.6816 72.3167 49.2683 72.3167ZM53.4809 70.8486L65.4336 69.3413C65.0984 70.0598 64.923 70.8424 64.9197 71.6353C64.9163 72.4282 65.0849 73.2123 65.414 73.9336L54.7924 73.5891C54.6222 72.5703 54.1676 71.6202 53.4809 70.8486ZM69.9751 52.5182C70.9651 52.1125 71.8192 51.4336 72.4377 50.5606L78.2555 54.9455C77.784 55.7431 77.5256 56.6485 77.505 57.5748C77.4845 58.5011 77.7024 59.4171 78.138 60.2348L73.2716 66.773C72.5257 66.3411 71.6886 66.0913 70.8281 66.0437C69.9676 65.996 69.1079 66.152 68.319 66.4989L69.9751 52.5182ZM93.0349 38.0011C93.4716 38.0011 93.8985 38.1306 94.2616 38.3732C94.6247 38.6158 94.9078 38.9607 95.0749 39.3642C95.242 39.7677 95.2858 40.2116 95.2005 40.64C95.1153 41.0683 94.9051 41.4617 94.5962 41.7706C94.2874 42.0794 93.894 42.2897 93.4657 42.3749C93.0373 42.4601 92.5933 42.4163 92.1899 42.2492C91.7864 42.0821 91.4415 41.7991 91.1989 41.4359C90.9563 41.0728 90.8268 40.6459 90.8268 40.2092C90.8278 39.6232 91.0613 39.0616 91.476 38.6476C91.8908 38.2336 92.4489 38.0011 93.0349 38.0011ZM87.8396 38.1029C87.5624 38.7705 87.42 39.4863 87.4207 40.2092C87.4207 40.3462 87.452 40.4754 87.4598 40.6124L72.8488 44.7859C72.3839 43.8608 71.6717 43.0826 70.7911 42.538C69.9106 41.9934 68.8963 41.7036 67.861 41.7008C67.6926 41.7008 67.5282 41.74 67.3637 41.7517L65.324 31.2985C66.7024 31.0794 67.9493 30.3533 68.8201 29.2626L87.8396 38.1029ZM64.4431 23.5545C64.8796 23.5545 65.3064 23.6839 65.6694 23.9263C66.0325 24.1688 66.3155 24.5134 66.4827 24.9167C66.65 25.3199 66.6939 25.7637 66.609 26.1919C66.5242 26.6201 66.3143 27.0136 66.0058 27.3225C65.6974 27.6315 65.3043 27.8421 64.8763 27.9278C64.4482 28.0134 64.0043 27.9702 63.6008 27.8037C63.1973 27.6372 62.8521 27.3548 62.609 26.9922C62.3659 26.6296 62.2358 26.203 62.235 25.7665C62.235 25.1805 62.4675 24.6185 62.8815 24.2037C63.2955 23.789 63.8571 23.5555 64.4431 23.5545ZM59.4161 28.2212C59.7912 28.9928 60.3374 29.6685 61.0132 30.1971C61.6889 30.7256 62.4764 31.0929 63.3155 31.2711L65.461 42.2529C64.6505 42.6406 63.9445 43.2165 63.4017 43.9324L47.5652 35.6481C48.0661 34.4306 48.0982 33.0707 47.6553 31.8309L59.4161 28.2212ZM42.3464 31.3846C42.783 31.3846 43.2097 31.514 43.5728 31.7565C43.9358 31.9989 44.2188 32.3436 44.3861 32.7468C44.5533 33.1501 44.5972 33.5938 44.5124 34.0221C44.4275 34.4503 44.2176 34.8437 43.9092 35.1527C43.6007 35.4617 43.2077 35.6723 42.7796 35.7579C42.3515 35.8435 41.9077 35.8004 41.5041 35.6339C41.1006 35.4673 40.7554 35.1849 40.5123 34.8223C40.2692 34.4597 40.1391 34.0332 40.1383 33.5966C40.1383 33.0106 40.3708 32.4486 40.7848 32.0339C41.1988 31.6192 41.7604 31.3856 42.3464 31.3846ZM42.1898 39.1991L45.9091 52.479C44.8342 52.9038 43.9157 53.6486 43.2782 54.6127L28.4048 50.819L28.4166 50.729C28.4104 49.4485 27.9623 48.2094 27.1481 47.2211L38.2043 37.359C38.7099 37.9179 39.3232 38.369 40.0074 38.6852C40.6916 39.0014 41.4325 39.1762 42.1859 39.1991M23.37 68.9028C23.37 69.3395 23.2405 69.7664 22.9979 70.1295C22.7553 70.4926 22.4104 70.7757 22.007 70.9428C21.6035 71.1099 21.1595 71.1536 20.7312 71.0684C20.3028 70.9832 19.9094 70.7729 19.6006 70.4641C19.2918 70.1553 19.0815 69.7619 18.9963 69.3335C18.9111 68.9052 18.9548 68.4612 19.1219 68.0578C19.2891 67.6543 19.5721 67.3094 19.9352 67.0668C20.2983 66.8242 20.7252 66.6947 21.1619 66.6947C21.7473 66.6957 22.3083 66.9287 22.7222 67.3425C23.136 67.7564 23.369 68.3175 23.37 68.9028ZM22.313 63.4021L23.0529 56.3236C24.1391 56.274 25.1873 55.9092 26.0696 55.2738C26.9518 54.6383 27.63 53.7597 28.0212 52.7453L42.4991 56.4372C42.3124 57.1753 42.2937 57.9459 42.4443 58.6923L25.4411 65.3087C24.6401 64.3411 23.537 63.6709 22.3091 63.406M22.7867 48.5209C23.2233 48.5209 23.65 48.6503 24.0131 48.8928C24.3761 49.1352 24.6591 49.4798 24.8263 49.8831C24.9936 50.2863 25.0375 50.7301 24.9527 51.1583C24.8678 51.5866 24.6579 51.98 24.3494 52.289C24.041 52.5979 23.6479 52.8085 23.2199 52.8942C22.7918 52.9798 22.348 52.9367 21.9444 52.7701C21.5409 52.6036 21.1957 52.3212 20.9526 51.9586C20.7095 51.596 20.5794 51.1695 20.5786 50.7329C20.5786 50.1469 20.8111 49.5849 21.2251 49.1702C21.6391 48.7554 22.2007 48.5219 22.7867 48.5209ZM25.9853 71.7373C26.4142 71.0391 26.6775 70.2519 26.7549 69.4361C26.8322 68.6204 26.7217 67.7977 26.4316 67.0314L43.1333 60.5323C43.5107 61.1787 44.0139 61.7428 44.613 62.1913C45.2122 62.6399 45.8952 62.9637 46.6217 63.1437L39.3201 73.2563C38.9543 72.1698 38.2635 71.2219 37.3413 70.5409C36.419 69.8598 35.3098 69.4786 34.1638 69.4487C33.0177 69.4188 31.8901 69.7417 30.9336 70.3737C29.9771 71.0057 29.2379 71.9163 28.8159 72.9823L25.9853 71.7373ZM34.0269 77.2771C33.5905 77.2763 33.1641 77.1463 32.8016 76.9034C32.4391 76.6604 32.1567 76.3155 31.99 75.9122C31.8234 75.5089 31.78 75.0652 31.8653 74.6373C31.9506 74.2093 32.1609 73.8162 32.4694 73.5076C32.778 73.1991 33.1711 72.9889 33.5991 72.9035C34.027 72.8182 34.4707 72.8616 34.874 73.0282C35.2773 73.1949 35.6222 73.4773 35.8651 73.8398C36.1081 74.2023 36.2381 74.6287 36.2389 75.0651C36.2389 75.6518 36.0058 76.2144 35.591 76.6292C35.1762 77.0441 34.6135 77.2771 34.0269 77.2771ZM47.3655 64.3339L48.0663 69.0398C46.8893 69.2976 45.8268 69.9284 45.0368 70.8383C44.2468 71.7482 43.7715 72.8886 43.6814 74.0902H40.9409L47.3655 64.3339ZM70.5271 73.8671C70.0907 73.8663 69.6644 73.7362 69.3018 73.4933C68.9393 73.2504 68.6569 72.9055 68.4903 72.5022C68.3236 72.0989 68.2802 71.6552 68.3656 71.2272C68.4509 70.7993 68.6611 70.4062 68.9697 70.0976C69.2782 69.7891 69.6713 69.5788 70.0993 69.4935C70.5273 69.4082 70.9709 69.4516 71.3742 69.6182C71.7775 69.7849 72.1224 70.0673 72.3654 70.4298C72.6083 70.7923 72.7384 71.2187 72.7391 71.6551C72.7391 72.2417 72.5061 72.8044 72.0912 73.2192C71.6764 73.634 71.1138 73.8671 70.5271 73.8671ZM95.4779 96.5549C95.0412 96.5549 94.6143 96.4254 94.2511 96.1828C93.888 95.9402 93.605 95.5953 93.4379 95.1918C93.2707 94.7884 93.227 94.3444 93.3122 93.9161C93.3974 93.4877 93.6077 93.0943 93.9165 92.7855C94.2253 92.4767 94.6188 92.2664 95.0471 92.1812C95.4754 92.096 95.9194 92.1397 96.3229 92.3068C96.7264 92.4739 97.0712 92.757 97.3139 93.1201C97.5565 93.4832 97.686 93.9101 97.686 94.3468C97.6849 94.9321 97.452 95.4932 97.0381 95.9071C96.6242 96.3209 96.0632 96.5539 95.4779 96.5549ZM95.4779 88.7248C94.7315 88.7249 93.9927 88.8742 93.3049 89.164C92.6171 89.4538 91.9942 89.8782 91.4728 90.4122C87.3076 84.0258 81.6506 78.7491 74.9903 75.0377C75.3173 74.6112 75.5798 74.139 75.7694 73.6361L87.6047 76.4667C87.9067 77.6436 88.5833 78.6904 89.5325 79.4489C90.4818 80.2074 91.652 80.6365 92.8665 80.6715C93.35 83.5397 94.3801 86.2883 95.9007 88.7679C95.7559 88.7561 95.6227 88.7248 95.4779 88.7248ZM93.027 77.281C92.5905 77.281 92.1637 77.1516 91.8007 76.9092C91.4377 76.6667 91.1546 76.3221 90.9874 75.9188C90.8202 75.5156 90.7762 75.0718 90.8611 74.6436C90.946 74.2154 91.1559 73.8219 91.4643 73.5129C91.7727 73.204 92.1658 72.9934 92.5939 72.9077C93.0219 72.8221 93.4658 72.8653 93.8693 73.0318C94.2729 73.1983 94.618 73.4807 94.8611 73.8433C95.1042 74.2059 95.2344 74.6325 95.2351 75.069C95.2351 75.655 95.0026 76.217 94.5886 76.6318C94.1747 77.0465 93.613 77.28 93.027 77.281ZM94.7653 69.7523C93.6664 69.3535 92.4636 69.3452 91.3592 69.7288L86.4693 62.1806C87.4595 61.4374 88.1755 60.3868 88.5051 59.1934H93.2541C93.4928 60.0492 93.9304 60.8364 94.5312 61.4909C95.1319 62.1454 95.8789 62.6487 96.7111 62.9597L94.7653 69.7523Z" fill="white"/>
</svg>
