<svg width="28" height="26" viewBox="0 0 28 26" fill="none" xmlns="http://www.w3.org/2000/svg">
<g clip-path="url(#clip0_1567_11646)">
<path d="M4.2 25.2539V22.4761H23.8V25.2539H4.2ZM4.2 20.3928L2.415 9.24696C2.36833 9.24696 2.3156 9.25298 2.2568 9.26502C2.198 9.27706 2.14574 9.28261 2.1 9.28169C1.51667 9.28169 1.02107 9.07891 0.613203 8.67335C0.205336 8.2678 0.000936515 7.77613 3.18182e-06 7.19835C-0.000930151 6.62058 0.20347 6.12891 0.613203 5.72335C1.02294 5.3178 1.51854 5.11502 2.1 5.11502C2.68147 5.11502 3.17754 5.3178 3.5882 5.72335C3.99887 6.12891 4.2028 6.62058 4.2 7.19835C4.2 7.36039 4.18227 7.51085 4.1468 7.64974C4.11133 7.78863 4.07073 7.91595 4.025 8.03169L8.4 9.97613L12.775 4.03863C12.5183 3.85345 12.3083 3.61039 12.145 3.30946C11.9817 3.00854 11.9 2.68446 11.9 2.33724C11.9 1.75854 12.1044 1.26641 12.5132 0.860854C12.922 0.455298 13.4176 0.252983 14 0.253909C14.5824 0.254835 15.0785 0.457613 15.4882 0.862243C15.8979 1.26687 16.1019 1.75854 16.1 2.33724C16.1 2.68446 16.0183 3.00854 15.855 3.30946C15.6917 3.61039 15.4817 3.85345 15.225 4.03863L19.6 9.97613L23.975 8.03169C23.9283 7.91595 23.8873 7.78863 23.8518 7.64974C23.8163 7.51085 23.7991 7.36039 23.8 7.19835C23.8 6.61965 24.0044 6.12752 24.4132 5.72196C24.822 5.31641 25.3176 5.11409 25.9 5.11502C26.4824 5.11595 26.9785 5.31872 27.3882 5.72335C27.7979 6.12798 28.0019 6.61965 28 7.19835C27.9981 7.77706 27.7942 8.26919 27.3882 8.67474C26.9822 9.0803 26.4861 9.28261 25.9 9.28169C25.8533 9.28169 25.8011 9.27613 25.7432 9.26502C25.6853 9.25391 25.6326 9.24789 25.585 9.24696L23.8 20.3928H4.2ZM6.58 17.615H21.42L22.33 11.8164L18.655 13.4136L14 7.05946L9.345 13.4136L5.67 11.8164L6.58 17.615Z" fill="black"/>
</g>
<defs>
<clipPath id="clip0_1567_11646">
<rect width="28" height="25" fill="white" transform="translate(0 0.253906)"/>
</clipPath>
</defs>
</svg>
