<svg width="90" height="90" viewBox="0 0 90 90" fill="none" xmlns="http://www.w3.org/2000/svg">
<path d="M52.9369 31.4375C52.9369 26.7775 49.1594 23 44.4996 23C39.8397 23 36.0622 26.7775 36.0622 31.4375C36.0622 36.0974 39.8397 39.875 44.4996 39.875C49.1594 39.875 52.9369 36.0974 52.9369 31.4375ZM42.53 44.1904C37.3155 40.9982 28.8694 40.121 24.6191 39.8794C23.1909 39.7985 22 40.8866 22 42.2603V61.8423C22 63.1017 23.0186 64.152 24.3282 64.2197C28.1654 64.421 35.9286 65.1584 41.2943 67.861C42.1178 68.2759 43.0942 67.7107 43.0942 66.8178V45.1976C43.0933 44.7871 42.8903 44.411 42.53 44.1904ZM64.38 39.8794C60.1306 40.1202 51.6836 40.9982 46.47 44.1904C46.1097 44.411 45.9067 44.8021 45.9067 45.2125V66.8151C45.9067 67.7107 46.8857 68.2767 47.7119 67.861C53.0766 65.161 60.8355 64.4236 64.6718 64.2224C65.9814 64.1538 67 63.1035 67 61.844V42.2603C66.9991 40.8866 65.8082 39.7985 64.38 39.8794Z" fill="#404452"/>
</svg>
