<svg width="120" height="120" viewBox="0 0 120 120" fill="none" xmlns="http://www.w3.org/2000/svg">
<path d="M27.2727 68.6022H31.875L34.2273 61.8522H44.8636L47.3182 68.6022H51.8182L41.8977 42.2159H37.1932L27.2727 68.6022ZM35.5568 58.0681L39.4432 47.125H39.6477L43.5341 58.0681H35.5568ZM68.1818 50.9091V43.9545C70.4318 43 72.7336 42.2841 75.0872 41.8068C77.4409 41.3295 79.9118 41.0909 82.5 41.0909C84.2727 41.0909 86.0113 41.2272 87.7159 41.5C89.4204 41.7727 91.0909 42.1136 92.7272 42.5227V49.0682C91.0909 48.4545 89.4368 47.995 87.765 47.6895C86.0932 47.3841 84.3382 47.23 82.5 47.2272C79.9091 47.2272 77.4204 47.5518 75.0341 48.2009C72.6477 48.85 70.3636 49.7527 68.1818 50.9091ZM68.1818 73.4091V66.4545C70.4318 65.5 72.7336 64.7841 75.0872 64.3068C77.4409 63.8295 79.9118 63.5909 82.5 63.5909C84.2727 63.5909 86.0113 63.7272 87.7159 64C89.4204 64.2727 91.0909 64.6136 92.7272 65.0227V71.5681C91.0909 70.9545 89.4368 70.4936 87.765 70.1854C86.0932 69.8772 84.3382 69.7245 82.5 69.7272C79.9091 69.7272 77.4204 70.0341 75.0341 70.6477C72.6477 71.2613 70.3636 72.1818 68.1818 73.4091ZM68.1818 62.1591V55.2045C70.4318 54.25 72.7336 53.5341 75.0872 53.0568C77.4409 52.5795 79.9118 52.3409 82.5 52.3409C84.2727 52.3409 86.0113 52.4772 87.7159 52.75C89.4204 53.0227 91.0909 53.3636 92.7272 53.7727V60.3181C91.0909 59.7045 89.4368 59.2436 87.765 58.9354C86.0932 58.6272 84.3382 58.4745 82.5 58.4772C79.9091 58.4772 77.4204 58.8018 75.0341 59.4509C72.6477 60.1 70.3636 61.0027 68.1818 62.1591ZM37.5 75.8636C40.7045 75.8636 43.8245 76.2222 46.86 76.9395C49.8954 77.6568 52.9118 78.73 55.9091 80.1591V39.8636C53.1136 38.2272 50.1477 37 47.0114 36.1818C43.875 35.3636 40.7045 34.9545 37.5 34.9545C35.0454 34.9545 32.6073 35.1932 30.1854 35.6704C27.7636 36.1477 25.4291 36.8636 23.1818 37.8182V78.3181C25.5682 77.5 27.9382 76.8863 30.2918 76.4772C32.6454 76.0681 35.0482 75.8636 37.5 75.8636ZM64.0909 80.1591C67.0909 78.7272 70.1086 77.6541 73.1441 76.9395C76.1795 76.225 79.2982 75.8663 82.5 75.8636C84.9545 75.8636 87.3586 76.0681 89.7122 76.4772C92.0659 76.8863 94.4345 77.5 96.8182 78.3181V37.8182C94.5682 36.8636 92.2322 36.1477 89.8104 35.6704C87.3886 35.1932 84.9518 34.9545 82.5 34.9545C79.2954 34.9545 76.125 35.3636 72.9886 36.1818C69.8523 37 66.8863 38.2272 64.0909 39.8636V80.1591ZM60 92.2272C56.7273 89.6363 53.1818 87.625 49.3636 86.1931C45.5454 84.7613 41.5909 84.0454 37.5 84.0454C34.6364 84.0454 31.8245 84.4204 29.0645 85.1704C26.3045 85.9204 23.6618 86.9772 21.1364 88.3409C19.7045 89.0909 18.3245 89.0568 16.9964 88.2386C15.6682 87.4204 15.0027 86.2272 15 84.6591V35.3636C15 34.6136 15.1882 33.8977 15.5645 33.2159C15.9409 32.5341 16.5027 32.0227 17.25 31.6818C20.3864 30.0454 23.6591 28.8182 27.0682 28C30.4773 27.1818 33.9545 26.7727 37.5 26.7727C41.4545 26.7727 45.3245 27.2841 49.11 28.3068C52.8954 29.3295 56.5254 30.8636 60 32.9091C63.4773 30.8636 67.1086 29.3295 70.8941 28.3068C74.6795 27.2841 78.5482 26.7727 82.5 26.7727C86.0454 26.7727 89.5227 27.1818 92.9318 28C96.3409 28.8182 99.6136 30.0454 102.75 31.6818C103.5 32.0227 104.063 32.5341 104.44 33.2159C104.816 33.8977 105.003 34.6136 105 35.3636V84.6591C105 86.2272 104.336 87.4204 103.008 88.2386C101.68 89.0568 100.298 89.0909 98.8636 88.3409C96.3409 86.9772 93.6995 85.9204 90.9395 85.1704C88.1795 84.4204 85.3663 84.0454 82.5 84.0454C78.4091 84.0454 74.4545 84.7613 70.6363 86.1931C66.8182 87.625 63.2727 89.6363 60 92.2272Z" fill="white"/>
</svg>
