<svg width="32" height="32" viewBox="0 0 32 32" fill="none" xmlns="http://www.w3.org/2000/svg">
<path d="M9.33357 7.49967H8.2997L8.94162 8.31012L15.5949 16.7101L15.9861 17.204L16.3782 16.7109L23.0582 8.31088L23.7033 7.49967H22.6669H9.33357ZM13.3336 17.333L13.7283 17.0261L13.7281 17.0259L13.7275 17.025L13.7248 17.0216L13.714 17.0077L13.6719 16.9535L13.5094 16.7444L12.9092 15.9722C12.4008 15.3182 11.695 14.4103 10.9049 13.3944C9.32522 11.3631 7.40879 8.90008 6.06193 7.17316C5.63774 6.62295 6.02785 5.83301 6.72024 5.83301H25.2669C25.9593 5.83301 26.3494 6.62301 25.9251 7.17322C24.5781 8.90035 22.6649 11.3635 21.0885 13.3948C20.3002 14.4107 19.596 15.3187 19.0888 15.9727L18.4901 16.7449L18.3281 16.954L18.286 17.0082L18.2753 17.0221L18.2726 17.0256L18.2719 17.0264L18.2717 17.0266L18.6669 17.333L18.2717 17.0267L18.1669 17.1619V17.333V25.333C18.1669 25.7902 17.7908 26.1663 17.3336 26.1663H14.6669C14.2097 26.1663 13.8336 25.7902 13.8336 25.333V17.333V17.1616L13.7284 17.0262L13.3336 17.333Z" fill="#727272" stroke="#727272"/>
</svg>
