<svg width="22" height="40" viewBox="0 0 22 40" fill="none" xmlns="http://www.w3.org/2000/svg">
<g clip-path="url(#clip0_1226_13039)">
<path fill-rule="evenodd" clip-rule="evenodd" d="M5.72551 0.893867C8.8435 0.539935 11.9915 0.539935 15.1095 0.893867L18.3015 1.25787C18.5272 1.2834 18.7441 1.35983 18.9359 1.48139C19.1277 1.60296 19.2894 1.76649 19.4088 1.95966C19.5282 2.15282 19.6022 2.37057 19.6252 2.5965C19.6482 2.82242 19.6196 3.05061 19.5415 3.26387L15.1355 15.2959H19.8455C20.088 15.2959 20.3269 15.3547 20.5417 15.4672C20.7565 15.5797 20.9408 15.7427 21.0788 15.942C21.2168 16.1414 21.3045 16.3713 21.3342 16.612C21.3639 16.8526 21.3349 17.0969 21.2495 17.3239L20.8695 18.3379C18.2256 25.3754 14.4898 31.9526 9.79951 37.8279L9.01751 38.8079C8.82337 39.0509 8.55846 39.2276 8.25946 39.3134C7.96047 39.3993 7.64218 39.3901 7.34867 39.287C7.05515 39.184 6.80093 38.9922 6.6212 38.7383C6.44148 38.4844 6.34513 38.1809 6.34551 37.8699V23.5659H2.70351C2.32822 23.5663 1.9664 23.4261 1.68945 23.1728C1.41249 22.9196 1.24054 22.5717 1.20751 22.1979L0.963512 19.4339C0.551225 14.7583 0.551225 10.0555 0.963512 5.37987L1.20751 2.61587C1.23764 2.27098 1.38614 1.94712 1.62782 1.69924C1.86951 1.45136 2.18949 1.29471 2.53351 1.25587L5.72551 0.893867ZM14.7715 3.87387C11.8781 3.5454 8.95689 3.5454 6.06351 3.87387L4.08951 4.09987L3.95151 5.64387C3.55151 10.1439 3.55151 14.6699 3.95151 19.1699L4.07551 20.5659H7.84551C8.24334 20.5659 8.62487 20.7239 8.90617 21.0052C9.18748 21.2865 9.34551 21.668 9.34551 22.0659V33.4739C12.7507 28.7864 15.5483 23.6865 17.6715 18.2959H12.9855C12.7444 18.2957 12.5069 18.2374 12.2931 18.1259C12.0793 18.0143 11.8955 17.8529 11.7573 17.6553C11.6192 17.4577 11.5307 17.2297 11.4994 16.9906C11.4681 16.7515 11.4949 16.5084 11.5775 16.2819L16.0655 4.02187L14.7715 3.87387Z" fill="#F9FAFB"/>
</g>
<defs>
<clipPath id="clip0_1226_13039">
<rect width="20.6912" height="38.7433" fill="white" transform="translate(0.654297 0.628418)"/>
</clipPath>
</defs>
</svg>
