<svg width="52" height="52" viewBox="0 0 52 52" fill="none" xmlns="http://www.w3.org/2000/svg">
<path d="M24.4106 8.95287C24.4996 8.62348 24.7156 8.34281 25.0112 8.17237C25.3068 8.00193 25.6579 7.95562 25.9876 8.04358L42.3276 12.419C42.658 12.5069 42.9399 12.7224 43.1115 13.0181C43.283 13.3138 43.3301 13.6656 43.2423 13.996L36.9723 37.3877C36.8833 37.7177 36.6669 37.9989 36.3707 38.1694C36.0744 38.3399 35.7226 38.3858 35.3926 38.297L19.0526 33.9216C18.7227 33.8331 18.4414 33.6174 18.2704 33.3217C18.0994 33.0261 18.0527 32.6746 18.1406 32.3446L24.4106 8.95287Z" stroke="black" stroke-width="3" stroke-linecap="round" stroke-linejoin="round"/>
<path d="M23.2217 13.5073L8.9554 17.3318C8.62551 17.4202 8.34419 17.6359 8.1732 17.9316C8.00221 18.2273 7.95553 18.5787 8.0434 18.9088L14.308 42.3005C14.397 42.6305 14.6134 42.9116 14.9096 43.0821C15.2058 43.2526 15.5576 43.2985 15.8877 43.2098L24.0577 41.022" stroke="black" stroke-width="3" stroke-linecap="round" stroke-linejoin="round"/>
</svg>
