<svg width="90" height="90" viewBox="0 0 90 90" fill="none" xmlns="http://www.w3.org/2000/svg">
<path d="M49.8144 27.677C49.8144 27.677 50.0731 32.1093 53.9832 36.0174C57.8934 39.9278 62.3233 40.1888 62.3233 40.1888L64.4088 38.1031C66.0679 36.4439 67 34.1936 67 31.8472C67 29.5008 66.0679 27.2504 64.4088 25.5913C62.7498 23.9321 60.4996 23 58.1533 23C55.807 23 53.5568 23.9321 51.8977 25.5913L49.8121 27.677L44.5026 32.9868M62.3233 40.1865L50.4893 52.0256L43.5126 58.9981L43.1527 59.3603C41.8523 60.6585 41.2021 61.3088 40.4867 61.8667C39.6419 62.5251 38.7284 63.0901 37.7621 63.5519C36.9432 63.9412 36.0725 64.2314 34.3289 64.8119L26.9473 67.2733M26.9473 67.2733L25.143 67.8763C24.7224 68.0173 24.2708 68.0382 23.839 67.9367C23.4071 67.8352 23.0122 67.6152 22.6985 67.3015C22.3848 66.9878 22.1648 66.5928 22.0633 66.161C21.9618 65.7291 21.9827 65.2775 22.1237 64.8569L22.7267 63.0524M26.9473 67.2733L22.7267 63.0524M22.7267 63.0524L25.188 55.6705C25.7684 53.9268 26.0586 53.056 26.4479 52.2371C26.9113 51.2666 27.473 50.3584 28.133 49.5124C28.6909 48.7969 29.3411 48.1467 30.6392 46.8485L36.6282 40.8615" stroke="#404452" stroke-width="6" stroke-linecap="round"/>
</svg>
