<svg width="58" height="58" viewBox="0 0 58 58" fill="none" xmlns="http://www.w3.org/2000/svg">
<path d="M29 28.9998V48.3332M29 28.9998V31.4165H36.25C40.0956 31.4165 43.7838 29.8888 46.503 27.1695C49.2223 24.4503 50.75 20.7621 50.75 16.9165V14.4998H43.5C39.6544 14.4998 35.9662 16.0275 33.247 18.7468C30.5277 21.4661 29 25.1542 29 28.9998ZM29 24.1665V26.5832H21.75C17.9044 26.5832 14.2162 25.0555 11.497 22.3362C8.77767 19.6169 7.25 15.9288 7.25 12.0832V9.6665H14.5C18.3456 9.6665 22.0338 11.1942 24.753 13.9135C27.4723 16.6327 29 20.3209 29 24.1665Z" stroke="black" stroke-width="4" stroke-linecap="round" stroke-linejoin="round"/>
</svg>
