<svg width="90" height="90" viewBox="0 0 90 90" fill="none" xmlns="http://www.w3.org/2000/svg">
<path fill-rule="evenodd" clip-rule="evenodd" d="M66.5 26.7176V31.935L58.1084 31.9347C62.5173 35.8061 65.2194 41.4719 65.2143 47.6452C65.2063 57.2054 58.7077 65.5379 49.4419 67.8684C40.1761 70.1989 30.5124 65.9317 25.9878 57.5114C21.4633 49.0914 23.2349 38.6714 30.2875 32.222C31.2838 33.8084 32.6887 35.097 34.3545 35.9526C32.5855 37.3827 31.159 39.1912 30.18 41.2453C29.201 43.2993 28.6943 45.5467 28.697 47.8224C28.8254 56.3754 35.7913 63.2412 44.3396 63.2403C52.1697 63.3694 58.8469 57.5913 59.8485 49.8195C60.5969 44.013 57.9989 38.4787 53.4649 35.2739L53.4645 44.9789H48.2503V26.7176H66.5ZM39.1255 21.5C42.0052 21.5 44.3396 23.836 44.3396 26.7176C44.3396 29.5991 42.0052 31.935 39.1255 31.935C36.2458 31.935 33.9113 29.5991 33.9113 26.7176C33.9113 23.836 36.2458 21.5 39.1255 21.5Z" fill="#404452"/>
</svg>
