<svg width="56" height="56" viewBox="0 0 56 56" fill="none" xmlns="http://www.w3.org/2000/svg">
<path d="M12.7273 32.0058H14.875L15.9727 28.8558H20.9364L22.0818 32.0058H24.1818L19.5523 19.6922H17.3568L12.7273 32.0058ZM16.5932 27.0899L18.4068 21.9831H18.5023L20.3159 27.0899H16.5932ZM31.8182 23.749V20.5035C32.8682 20.0581 33.9424 19.724 35.0407 19.5013C36.1391 19.2785 37.2922 19.1672 38.5 19.1672C39.3273 19.1672 40.1386 19.2308 40.9341 19.3581C41.7295 19.4853 42.5091 19.6444 43.2727 19.8353V22.8899C42.5091 22.6035 41.7372 22.3891 40.957 22.2465C40.1768 22.104 39.3578 22.0321 38.5 22.0308C37.2909 22.0308 36.1295 22.1823 35.0159 22.4852C33.9023 22.7881 32.8364 23.2093 31.8182 23.749ZM31.8182 34.249V31.0035C32.8682 30.5581 33.9424 30.224 35.0407 30.0013C36.1391 29.7785 37.2922 29.6672 38.5 29.6672C39.3273 29.6672 40.1386 29.7308 40.9341 29.8581C41.7295 29.9853 42.5091 30.1444 43.2727 30.3353V33.3899C42.5091 33.1035 41.7372 32.8884 40.957 32.7446C40.1768 32.6008 39.3578 32.5295 38.5 32.5308C37.2909 32.5308 36.1295 32.674 35.0159 32.9603C33.9023 33.2467 32.8364 33.6763 31.8182 34.249ZM31.8182 28.999V25.7535C32.8682 25.3081 33.9424 24.974 35.0407 24.7513C36.1391 24.5285 37.2922 24.4172 38.5 24.4172C39.3273 24.4172 40.1386 24.4808 40.9341 24.6081C41.7295 24.7353 42.5091 24.8944 43.2727 25.0853V28.1399C42.5091 27.8535 41.7372 27.6384 40.957 27.4946C40.1768 27.3508 39.3578 27.2795 38.5 27.2808C37.2909 27.2808 36.1295 27.4323 35.0159 27.7352C33.9023 28.0381 32.8364 28.4593 31.8182 28.999ZM17.5 35.3944C18.9955 35.3944 20.4515 35.5618 21.868 35.8965C23.2845 36.2313 24.6922 36.7321 26.0909 37.399V18.5944C24.7864 17.8308 23.4023 17.2581 21.9386 16.8763C20.475 16.4944 18.9955 16.3035 17.5 16.3035C16.3545 16.3035 15.2167 16.4149 14.0865 16.6376C12.9564 16.8604 11.8669 17.1944 10.8182 17.6399V36.5399C11.9318 36.1581 13.0378 35.8717 14.1362 35.6808C15.2345 35.4899 16.3558 35.3944 17.5 35.3944ZM29.9091 37.399C31.3091 36.7308 32.7174 36.23 34.1339 35.8965C35.5504 35.5631 37.0058 35.3957 38.5 35.3944C39.6454 35.3944 40.7674 35.4899 41.8657 35.6808C42.9641 35.8717 44.0694 36.1581 45.1818 36.5399V17.6399C44.1318 17.1944 43.0417 16.8604 41.9115 16.6376C40.7814 16.4149 39.6442 16.3035 38.5 16.3035C37.0045 16.3035 35.525 16.4944 34.0614 16.8763C32.5977 17.2581 31.2136 17.8308 29.9091 18.5944V37.399ZM28 43.0308C26.4727 41.8217 24.8182 40.8831 23.0364 40.2149C21.2545 39.5467 19.4091 39.2126 17.5 39.2126C16.1636 39.2126 14.8515 39.3876 13.5635 39.7376C12.2755 40.0876 11.0422 40.5808 9.86364 41.2172C9.19545 41.5672 8.55145 41.5513 7.93164 41.1694C7.31182 40.7876 7.00127 40.2308 7 39.499V16.4944C7 16.1444 7.08782 15.8104 7.26345 15.4922C7.43909 15.174 7.70127 14.9354 8.05 14.7763C9.51364 14.0126 11.0409 13.4399 12.6318 13.0581C14.2227 12.6763 15.8455 12.4854 17.5 12.4854C19.3455 12.4854 21.1515 12.724 22.918 13.2013C24.6845 13.6785 26.3785 14.3944 28 15.349C29.6227 14.3944 31.3174 13.6785 33.0839 13.2013C34.8504 12.724 36.6558 12.4854 38.5 12.4854C40.1545 12.4854 41.7773 12.6763 43.3682 13.0581C44.9591 13.4399 46.4864 14.0126 47.95 14.7763C48.3 14.9354 48.5628 15.174 48.7384 15.4922C48.9141 15.8104 49.0013 16.1444 49 16.4944V39.499C49 40.2308 48.6901 40.7876 48.0703 41.1694C47.4504 41.5513 46.8058 41.5672 46.1364 41.2172C44.9591 40.5808 43.7264 40.0876 42.4384 39.7376C41.1504 39.3876 39.8376 39.2126 38.5 39.2126C36.5909 39.2126 34.7454 39.5467 32.9636 40.2149C31.1818 40.8831 29.5273 41.8217 28 43.0308Z" fill="black"/>
</svg>
