<svg width="90" height="72" viewBox="0 0 90 72" fill="none" xmlns="http://www.w3.org/2000/svg">
<path d="M46.3607 14.3559L71.5616 28.417C72.9092 29.1728 73.3992 30.8865 72.6467 32.2399C71.8941 33.5933 70.1878 34.0854 68.8403 33.3297L45.0044 20.0331L21.1597 33.3384C19.8122 34.0942 18.1059 33.6021 17.3533 32.2487C16.6008 30.8953 17.0908 29.1816 18.4384 28.4258L43.6481 14.3559C44.4969 13.8814 45.5206 13.8814 46.3694 14.3559H46.3607ZM45.0044 28.0655C45.9327 28.0655 46.8229 28.4359 47.4793 29.0951C48.1357 29.7544 48.5045 30.6485 48.5045 31.5808C48.5045 32.5131 48.1357 33.4072 47.4793 34.0665C46.8229 34.7257 45.9327 35.0961 45.0044 35.0961C44.0761 35.0961 43.1858 34.7257 42.5294 34.0665C41.873 33.4072 41.5042 32.5131 41.5042 31.5808C41.5042 30.6485 41.873 29.7544 42.5294 29.0951C43.1858 28.4359 44.0761 28.0655 45.0044 28.0655ZM29.6038 36.5022C30.5321 36.5022 31.4224 36.8726 32.0788 37.5318C32.7352 38.191 33.1039 39.0852 33.1039 40.0175C33.1039 40.9498 32.7352 41.8439 32.0788 42.5032C31.4224 43.1624 30.5321 43.5328 29.6038 43.5328C28.6755 43.5328 27.7852 43.1624 27.1288 42.5032C26.4724 41.8439 26.1037 40.9498 26.1037 40.0175C26.1037 39.0852 26.4724 38.191 27.1288 37.5318C27.7852 36.8726 28.6755 36.5022 29.6038 36.5022ZM56.9048 40.0175C56.9048 39.0852 57.2736 38.191 57.93 37.5318C58.5864 36.8726 59.4767 36.5022 60.405 36.5022C61.3332 36.5022 62.2235 36.8726 62.8799 37.5318C63.5363 38.191 63.9051 39.0852 63.9051 40.0175C63.9051 40.9498 63.5363 41.8439 62.8799 42.5032C62.2235 43.1624 61.3332 43.5328 60.405 43.5328C59.4767 43.5328 58.5864 43.1624 57.93 42.5032C57.2736 41.8439 56.9048 40.9498 56.9048 40.0175ZM36.8578 57.1896L34.504 52.8043V56.1878C34.504 57.7433 33.2527 59 31.7039 59H27.5037C25.9549 59 24.7036 57.7433 24.7036 56.1878V52.8043L22.3498 57.1896C21.7985 58.2178 20.5297 58.5957 19.5059 58.0509C18.4821 57.506 18.1059 56.2229 18.6484 55.1947L21.9648 49.0166C23.3036 46.512 25.9112 44.9477 28.7463 44.9477H30.4526C31.8789 44.9477 33.2439 45.3431 34.4252 46.055L37.3653 40.5799C38.7041 38.0753 41.3117 36.511 44.1468 36.511H45.8532C48.6883 36.511 51.2871 38.0753 52.6347 40.5799L55.5748 46.055C56.7561 45.3431 58.1211 44.9477 59.5474 44.9477H61.2537C64.0888 44.9477 66.6877 46.512 68.0352 49.0166L71.3516 55.1947C71.9029 56.2229 71.5179 57.4972 70.4941 58.0509C69.4703 58.6045 68.2015 58.2178 67.6502 57.1896L65.3051 52.8043V56.1878C65.3051 57.7433 64.0538 59 62.505 59H58.3049C56.7561 59 55.5048 57.7433 55.5048 56.1878V52.8043L53.1509 57.1896C52.5997 58.2178 51.3309 58.5957 50.3071 58.0509C49.2833 57.506 48.907 56.2229 49.4495 55.1947L52.6259 49.2627C52.4772 49.1133 52.3459 48.9463 52.2496 48.753L49.9046 44.3676V49.1572C49.9046 50.7127 48.6533 51.9694 47.1045 51.9694H42.9043C41.3555 51.9694 40.1042 50.7127 40.1042 49.1572V44.3676L37.7504 48.753C37.6454 48.9463 37.5228 49.1133 37.3741 49.2627L40.5505 55.1947C41.1017 56.2229 40.7167 57.4972 39.6929 58.0509C38.6691 58.6045 37.4003 58.2178 36.8491 57.1896H36.8578Z" fill="#404452"/>
</svg>
