<svg width="90" height="90" viewBox="0 0 90 90" fill="none" xmlns="http://www.w3.org/2000/svg">
<path d="M47.713 23.2391L34.3565 36.5957H21V54.4044H34.3565L47.713 67.7609V23.2391ZM54.8727 27.0886L54.2243 29.5077C61.4683 31.4485 66.4957 38.0002 66.4957 45.5C66.4957 52.9998 61.4683 59.5513 54.2243 61.4924L54.8727 63.9114C63.1996 61.6802 69 54.1208 69 45.5C69 36.8791 63.1996 29.3198 54.8727 27.0886ZM53.144 33.5394L52.4959 35.9584C56.8205 37.1171 59.8174 41.0231 59.8174 45.5C59.8174 49.9769 56.8205 53.8829 52.4959 55.0416L53.144 57.4606C58.5516 56.0116 62.3217 51.0982 62.3217 45.5C62.3217 39.9018 58.5516 34.9884 53.144 33.5394ZM51.4154 39.9899L50.7675 42.4089C52.1722 42.7856 53.1391 44.0457 53.1391 45.5C53.1391 46.9543 52.1722 48.2144 50.7674 48.5911L51.4154 51.0101C53.9036 50.3434 55.6436 48.0759 55.6436 45.5C55.6436 42.9241 53.9036 40.6566 51.4154 39.9899Z" fill="#404452"/>
</svg>
