<svg width="120" height="120" viewBox="0 0 120 120" fill="none" xmlns="http://www.w3.org/2000/svg">
<path d="M41.8368 50.9557C41.0832 52.2914 40.1608 53.3259 39.0694 54.0592C37.9781 54.7925 36.6399 55.1722 35.0548 55.1984C34.0154 55.1984 33.067 55.0544 32.2095 54.7663C31.352 54.4782 30.5985 54.033 29.9488 53.4306C29.2992 52.8283 28.8185 52.1212 28.5067 51.3093C28.1949 50.4974 28.026 49.5284 28 48.4023C28 47.2238 28.1689 46.2024 28.5067 45.3381C28.8445 44.4739 29.3382 43.7275 29.9878 43.099C30.6374 42.4704 31.404 41.9728 32.2875 41.6062C33.1709 41.2395 34.1713 40.9645 35.2887 40.7812L41.9147 39.7991C41.9147 39.0134 41.8498 38.267 41.7199 37.5599C41.5899 36.8528 41.3431 36.2243 40.9793 35.6743C40.6155 35.1243 40.1478 34.6922 39.5761 34.3779C39.0045 34.0636 38.2639 33.8934 37.3544 33.8672C35.9773 33.8672 34.691 34.116 33.4957 34.6136C32.3004 35.1112 31.1831 35.8183 30.1437 36.735V32.8851C30.5595 32.5709 31.0792 32.2828 31.7028 32.0209C32.3264 31.759 33.002 31.5364 33.7296 31.3531C34.4572 31.1697 35.1587 31.0126 35.8343 30.8817C36.5099 30.7507 37.1206 30.6852 37.6663 30.6852C39.0694 30.6852 40.2647 30.8817 41.2521 31.2745C42.2395 31.6673 43.0451 32.2566 43.6687 33.0423C44.2923 33.8279 44.7471 34.7446 45.0329 35.7921C45.3187 36.8397 45.4616 38.0444 45.4616 39.4063V54.6091H41.9147V50.9557H41.8368ZM35.8733 52.0164C36.8348 52.0164 37.6793 51.8331 38.4068 51.4664C39.1344 51.0998 39.771 50.5891 40.3167 49.9344C40.8624 49.2796 41.2521 48.5463 41.486 47.7345C41.7199 46.9226 41.8628 46.0583 41.9147 45.1417V42.7847L36.5749 43.6096C35.8473 43.7406 35.1847 43.8846 34.5871 44.0418C33.9894 44.1989 33.4698 44.4346 33.028 44.7489C32.5863 45.0632 32.2485 45.4953 32.0146 46.0452C31.7808 46.5952 31.6508 47.2892 31.6248 48.1273C31.6248 49.3844 32.0406 50.3403 32.8721 50.995C33.7036 51.6498 34.704 51.9902 35.8733 52.0164ZM53.9976 51.27V54.6091H50.4507V20H53.9976V35.36H54.0755C54.933 33.8149 56.0633 32.6494 57.4665 31.8637C58.8697 31.0781 60.4417 30.6852 62.1827 30.6852C63.8197 30.6852 65.2099 31.0126 66.3532 31.6673C67.4966 32.3221 68.432 33.1994 69.1596 34.2994C69.8871 35.3993 70.4198 36.6302 70.7576 37.992C71.0954 39.3539 71.2643 40.7681 71.2643 42.2347C71.2643 43.8323 71.0824 45.4036 70.7186 46.9488C70.3549 48.4939 69.7572 49.8689 68.9257 51.0736C68.0942 52.2783 67.0548 53.2735 65.8076 54.0592C64.5603 54.8449 63.0142 55.2246 61.1693 55.1984C59.6882 55.1984 58.324 54.871 57.0767 54.2163C55.8295 53.5616 54.8291 52.5795 54.0755 51.27H53.9976ZM53.9976 41.8026V45.0632C53.9976 46.0845 54.1535 47.0143 54.4653 47.8523C54.7771 48.6904 55.2448 49.4237 55.8685 50.0522C56.4921 50.6808 57.2067 51.1653 58.0122 51.5057C58.8177 51.8462 59.7402 52.0164 60.7795 52.0164C62.1048 52.0164 63.2091 51.7152 64.0926 51.1129C64.976 50.5105 65.6776 49.7248 66.1973 48.7558C66.717 47.7868 67.0808 46.7393 67.2887 45.6131C67.4966 44.487 67.6135 43.3478 67.6395 42.1954C67.6395 41.174 67.5355 40.1658 67.3277 39.1706C67.1198 38.1754 66.756 37.2849 66.2363 36.4993C65.7166 35.7136 65.054 35.085 64.2485 34.6136C63.443 34.1422 62.4555 33.8934 61.2862 33.8672C60.1169 33.8672 59.0775 34.0636 58.1681 34.4565C57.2586 34.8493 56.4921 35.4124 55.8685 36.1457C55.2448 36.879 54.7771 37.7171 54.4653 38.6599C54.1535 39.6027 53.9976 40.6503 53.9976 41.8026ZM86.7381 33.8672C85.4389 33.8672 84.3086 34.1291 83.3471 34.6529C82.3857 35.1767 81.5802 35.8707 80.9306 36.735C80.281 37.5992 79.8002 38.5944 79.4884 39.7205C79.1766 40.8467 79.0207 41.999 79.0207 43.1775C79.0207 44.356 79.1636 45.4822 79.4495 46.5559C79.7353 47.6297 80.19 48.5725 80.8136 49.3844C81.4373 50.1963 82.2168 50.8379 83.1523 51.3093C84.0877 51.7807 85.218 52.0164 86.5432 52.0164C87.5307 52.0164 88.4791 51.8331 89.3886 51.4664C90.298 51.0998 91.1555 50.6022 91.961 49.9736V53.5485C91.0516 54.1508 90.0901 54.5699 89.0767 54.8056C88.0633 55.0413 87.011 55.1722 85.9196 55.1984C84.2306 55.1984 82.7365 54.8972 81.4373 54.2949C80.138 53.6925 79.0467 52.8545 78.1632 51.7807C77.2797 50.7069 76.5912 49.463 76.0974 48.0487C75.6037 46.6345 75.3699 45.1155 75.3959 43.4918C75.3959 41.6847 75.6427 40.0086 76.1364 38.4634C76.6301 36.9183 77.3577 35.5564 78.3191 34.3779C79.2806 33.1994 80.4758 32.2959 81.905 31.6673C83.3341 31.0388 84.9972 30.7114 86.894 30.6852C87.7775 30.6852 88.648 30.7769 89.5055 30.9602C90.363 31.1435 91.1945 31.4447 92 31.8637V35.6743C91.2205 35.0981 90.389 34.6529 89.5055 34.3386C88.622 34.0244 87.6996 33.8672 86.7381 33.8672ZM55.4007 91.8503L83.62 63.4873L87.1279 67.0229L55.4007 99L38.7186 82.1079L42.2266 78.5723L55.4007 91.8503Z" fill="white"/>
</svg>
