<svg width="120" height="120" viewBox="0 0 120 120" fill="none" xmlns="http://www.w3.org/2000/svg">
<path d="M71.7603 54.9435C73.3028 50.604 73.6814 45.9288 72.8577 41.3933C72.034 36.8578 70.0373 32.6238 67.0706 29.122C64.104 25.6202 60.2733 22.9754 55.9682 21.4567C51.663 19.938 47.0369 19.5995 42.5604 20.4756C38.0839 21.3517 33.9167 23.4112 30.4825 26.4447C27.0484 29.4781 24.4698 33.3773 23.0091 37.7456C21.5484 42.1139 21.2577 46.7956 22.1664 51.3144C23.0752 55.8333 25.151 60.0281 28.1828 63.4723L33.5521 58.6379C31.3644 56.1527 29.8666 53.1259 29.2109 49.8654C28.5552 46.6048 28.765 43.2267 29.819 40.0748C30.873 36.9228 32.7335 34.1094 35.2114 31.9206C37.6893 29.7318 40.6962 28.2457 43.9262 27.6136C47.1562 26.9814 50.4942 27.2257 53.6006 28.3215C56.707 29.4173 59.471 31.3257 61.6116 33.8524C63.7522 36.3792 65.1929 39.4342 65.7873 42.7068C66.3816 45.9793 66.1084 49.3528 64.9954 52.4839L71.7603 54.9435Z" fill="white"/>
<path d="M71.0244 58.1905L51.2501 42.3377C50.7057 41.9012 50.4335 41.683 50.3403 41.4223C50.2587 41.194 50.2648 40.9434 50.3576 40.7193C50.4634 40.4635 50.746 40.2589 51.3111 39.8496L51.5201 39.6983C51.8655 39.4482 52.0382 39.3231 52.2262 39.2778C52.392 39.2378 52.5654 39.2419 52.7292 39.2897C52.9147 39.3439 53.0813 39.477 53.4145 39.7433L73.0707 55.4502L73.0707 55.4502C73.3704 55.6897 73.5202 55.8094 73.6109 55.9613C73.6911 56.0955 73.738 56.2469 73.7476 56.4029C73.7584 56.5795 73.7024 56.7629 73.5903 57.1298L73.4995 57.4269C73.2735 58.1665 73.1605 58.5362 72.9333 58.7235C72.7345 58.8873 72.4792 58.9661 72.2227 58.9427C71.9294 58.916 71.6278 58.6742 71.0244 58.1905L71.0244 58.1905Z" stroke="white" stroke-width="5"/>
<path d="M89.0321 84.7048L85.7554 72.8722C85.6869 72.6246 85.7185 72.36 85.8434 72.1355L89.8749 64.8938C90.2845 64.158 91.3708 64.2496 91.6514 65.0436L99.4437 87.0941C99.7169 87.8673 98.9744 88.6132 98.2 88.3435L89.653 85.3673C89.3499 85.2617 89.1178 85.0141 89.0321 84.7048Z" fill="white" stroke="white" stroke-width="5"/>
<path d="M58.4155 84.65L69.329 66.7682C69.5375 66.4266 69.4546 65.9827 69.1368 65.7395L45.2457 47.4478C44.9172 47.1963 44.4497 47.244 44.1788 47.5567L19.1911 76.3959C18.8966 76.7358 18.9486 77.2535 19.305 77.528L48.1752 99.7646C48.544 100.049 49.0778 99.9497 49.3203 99.5523L52.0293 95.1137M58.4155 84.65L78.8456 78.9841C79.2513 78.8716 79.6733 79.1004 79.8005 79.5019L81.2027 83.93C81.3299 84.3317 81.1161 84.762 80.7192 84.9032L52.0293 95.1137M58.4155 84.65L52.0293 95.1137M89.248 70.6403L94.2525 86.1387" stroke="white" stroke-width="5"/>
</svg>
