<svg width="48" height="86" viewBox="0 0 48 86" fill="none" xmlns="http://www.w3.org/2000/svg">
<path d="M17 36.828H19.7M19.7 36.828H21.5M19.7 36.828V36M23 36.828H21.5M21.5 36.828C21.184 37.959 20.52 39.029 19.764 39.969L20.921 41.172M17.836 42C18.5277 41.3717 19.1721 40.6932 19.764 39.97C19.379 39.517 18.839 38.786 18.684 38.455M25.5 50L26.333 48M26.333 48L28 44L29.667 48M26.333 48H29.667M30.5 50L29.667 48" stroke="#313440" stroke-width="1.5" stroke-linecap="round" stroke-linejoin="round"/>
<path d="M26 41V39C26 36.172 26 34.757 25.121 33.879C24.243 33 22.828 33 20 33C17.172 33 15.757 33 14.879 33.879C14 34.757 14 36.172 14 39C14 41.828 14 43.243 14.879 44.121C15.757 45 17.172 45 20 45H22" stroke="#313440" stroke-width="1.5" stroke-linecap="round" stroke-linejoin="round"/>
<path d="M16 47.5C16 48.904 16 49.607 16.337 50.111C16.483 50.3295 16.6705 50.517 16.889 50.663C17.393 51 18.096 51 19.5 51M32 38.5C32 37.096 32 36.393 31.663 35.889C31.517 35.6705 31.3295 35.483 31.111 35.337C30.607 35 29.904 35 28.5 35M22 47C22 44.172 22 42.757 22.879 41.879C23.757 41 25.172 41 28 41C30.828 41 32.243 41 33.121 41.879C34 42.757 34 44.172 34 47C34 49.828 34 51.243 33.121 52.121C32.243 53 30.828 53 28 53C25.172 53 23.757 53 22.879 52.121C22 51.243 22 49.828 22 47Z" stroke="#313440" stroke-width="1.5" stroke-linecap="round" stroke-linejoin="round"/>
</svg>
