<svg width="90" height="90" viewBox="0 0 90 90" fill="none" xmlns="http://www.w3.org/2000/svg">
<path fill-rule="evenodd" clip-rule="evenodd" d="M44.4999 23C56.9265 23 67 33.0735 67 45.4999C67 57.9263 56.9265 68 44.4999 68C32.0736 68 22 57.9264 22 45.4999C22 33.0735 32.0736 23 44.4999 23ZM46.7549 43.25H42.2549V56.75H46.7549V43.25ZM44.5228 33.6875C42.8824 33.6875 41.6924 34.8708 41.6924 36.4688C41.6924 38.1314 42.8511 39.3125 44.5228 39.3125C46.1297 39.3125 47.3174 38.1313 47.3174 36.5C47.3174 34.8709 46.1297 33.6875 44.5228 33.6875Z" fill="#404452"/>
</svg>
