<svg width="90" height="90" viewBox="0 0 90 90" fill="none" xmlns="http://www.w3.org/2000/svg">
<mask id="path-1-inside-1_754_1920" fill="white">
<path d="M64.1121 42.5499H31.8547L45.9475 28.0783C47.0737 26.9217 47.0737 25.0238 45.9475 23.8672C45.6803 23.5923 45.3629 23.3742 45.0136 23.2254C44.6642 23.0766 44.2897 23 43.9115 23C43.5333 23 43.1588 23.0766 42.8094 23.2254C42.4601 23.3742 42.1427 23.5923 41.8756 23.8672L22.8445 43.4099C22.5768 43.6843 22.3644 44.0102 22.2195 44.3689C22.0746 44.7277 22 45.1122 22 45.5006C22 45.889 22.0746 46.2736 22.2195 46.6323C22.3644 46.9911 22.5768 47.317 22.8445 47.5913L41.8756 67.134C42.1429 67.4086 42.4603 67.6263 42.8097 67.7749C43.159 67.9235 43.5334 68 43.9115 68C44.2896 68 44.664 67.9235 45.0134 67.7749C45.3627 67.6263 45.6801 67.4086 45.9475 67.134C46.2148 66.8595 46.4269 66.5335 46.5716 66.1748C46.7163 65.8161 46.7908 65.4316 46.7908 65.0433C46.7908 64.6551 46.7163 64.2706 46.5716 63.9119C46.4269 63.5531 46.2148 63.2272 45.9475 62.9526L31.8547 48.481H64.1121C65.7005 48.481 67 47.1465 67 45.5155C67 43.8844 65.7005 42.5499 64.1121 42.5499Z"/>
</mask>
<path d="M31.8547 42.5499L27.5561 38.364L17.6368 48.5499H31.8547V42.5499ZM45.9475 28.0783L41.6489 23.8923V23.8923L45.9475 28.0783ZM45.9475 23.8672L41.6446 28.0488L41.6489 28.0532L45.9475 23.8672ZM43.9115 23V17V23ZM41.8756 23.8672L46.1741 28.0532L46.1784 28.0488L41.8756 23.8672ZM22.8445 43.4099L27.1388 47.6003L27.1431 47.5959L22.8445 43.4099ZM22 45.5006H16H22ZM22.8445 47.5913L27.1431 43.4053L27.1388 43.4009L22.8445 47.5913ZM41.8756 67.134L37.577 71.32V71.32L41.8756 67.134ZM43.9115 68V74V68ZM46.7908 65.0433H52.7908H46.7908ZM45.9475 62.9526L50.246 58.7666L45.9475 62.9526ZM31.8547 48.481V42.481H17.6368L27.5561 52.667L31.8547 48.481ZM64.1121 36.5499H31.8547V48.5499H64.1121V36.5499ZM36.1532 46.7359L50.246 32.2643L41.6489 23.8923L27.5561 38.364L36.1532 46.7359ZM50.246 32.2643C53.6409 28.7781 53.6409 23.1674 50.246 19.6812L41.6489 28.0532C40.5066 26.8802 40.5066 25.0653 41.6489 23.8923L50.246 32.2643ZM50.2503 19.6857C49.4334 18.8451 48.4544 18.1694 47.365 17.7053L42.6622 28.7455C42.2715 28.5791 41.9272 28.3396 41.6446 28.0488L50.2503 19.6857ZM47.365 17.7053C46.2752 17.2411 45.1012 17 43.9115 17V29C43.4783 29 43.0533 28.9121 42.6622 28.7455L47.365 17.7053ZM43.9115 17C42.7219 17 41.5478 17.2411 40.4581 17.7053L45.1608 28.7455C44.7697 28.9121 44.3447 29 43.9115 29V17ZM40.4581 17.7053C39.3687 18.1694 38.3897 18.8451 37.5727 19.6857L46.1784 28.0488C45.8958 28.3396 45.5515 28.5791 45.1608 28.7455L40.4581 17.7053ZM37.577 19.6812L18.546 39.224L27.1431 47.5959L46.1741 28.0532L37.577 19.6812ZM18.5503 39.2195C17.7319 40.0582 17.0909 41.0457 16.6563 42.1216L27.7828 46.6162C27.638 46.9746 27.4217 47.3104 27.1388 47.6003L18.5503 39.2195ZM16.6563 42.1216C16.2218 43.1973 16 44.3451 16 45.5006H28C28 45.8794 27.9274 46.258 27.7828 46.6162L16.6563 42.1216ZM16 45.5006C16 46.6562 16.2218 47.804 16.6563 48.8796L27.7828 44.385C27.9274 44.7432 28 45.1218 28 45.5006H16ZM16.6563 48.8796C17.0909 49.9555 17.7319 50.9431 18.5503 51.7817L27.1388 43.4009C27.4217 43.6909 27.638 44.0266 27.7828 44.385L16.6563 48.8796ZM18.546 51.7773L37.577 71.32L46.1741 62.948L27.1431 43.4053L18.546 51.7773ZM37.577 71.32C38.3941 72.159 39.3727 72.8332 40.4612 73.2962L45.1582 62.2536C45.548 62.4195 45.8918 62.6581 46.1741 62.948L37.577 71.32ZM40.4612 73.2962C41.5501 73.7594 42.723 74 43.9115 74V62C44.3438 62 44.7679 62.0877 45.1582 62.2536L40.4612 73.2962ZM43.9115 74C45.1 74 46.2729 73.7594 47.3618 73.2962L42.6649 62.2536C43.0551 62.0877 43.4792 62 43.9115 62V74ZM47.3618 73.2962C48.4504 72.8332 49.429 72.159 50.246 71.32L41.6489 62.948C41.9312 62.6581 42.275 62.4195 42.6649 62.2536L47.3618 73.2962ZM50.246 71.32C51.0627 70.4814 51.7023 69.4943 52.136 68.4193L41.0072 63.9303C41.1515 63.5727 41.367 63.2376 41.6489 62.948L50.246 71.32ZM52.136 68.4193C52.5695 67.3445 52.7908 66.1978 52.7908 65.0433H40.7908C40.7908 64.6654 40.8631 64.2877 41.0072 63.9303L52.136 68.4193ZM52.7908 65.0433C52.7908 63.8889 52.5695 62.7422 52.136 61.6674L41.0072 66.1563C40.8631 65.799 40.7908 65.4212 40.7908 65.0433H52.7908ZM52.136 61.6674C51.7023 60.5923 51.0627 59.6053 50.246 58.7666L41.6489 67.1386C41.367 66.8491 41.1515 66.514 41.0072 66.1563L52.136 61.6674ZM50.246 58.7666L36.1532 44.295L27.5561 52.667L41.6489 67.1386L50.246 58.7666ZM31.8547 54.481H64.1121V42.481H31.8547V54.481ZM64.1121 54.481C69.1632 54.481 73 50.3092 73 45.5155H61C61 43.9838 62.2377 42.481 64.1121 42.481V54.481ZM73 45.5155C73 40.7218 69.1632 36.5499 64.1121 36.5499V48.5499C62.2377 48.5499 61 47.0471 61 45.5155H73Z" fill="#404452" mask="url(#path-1-inside-1_754_1920)"/>
</svg>
