<svg width="90" height="90" viewBox="0 0 90 90" fill="none" xmlns="http://www.w3.org/2000/svg">
<path d="M55.1698 44.4115C55.1698 43.5686 55.527 42.7603 56.1627 42.1642C56.7985 41.5682 57.6607 41.2334 58.5598 41.2334C59.4589 41.2334 60.3211 41.5682 60.9569 42.1642C61.5926 42.7603 61.9498 43.5686 61.9498 44.4115C61.9498 45.2544 61.5926 46.0628 60.9569 46.6588C60.3211 47.2548 59.4589 47.5896 58.5598 47.5896C57.6607 47.5896 56.7985 47.2548 56.1627 46.6588C55.527 46.0628 55.1698 45.2544 55.1698 44.4115ZM41.6098 44.4115C41.6098 43.5686 41.967 42.7603 42.6027 42.1642C43.2385 41.5682 44.1007 41.2334 44.9998 41.2334C45.8989 41.2334 46.7611 41.5682 47.3969 42.1642C48.0326 42.7603 48.3898 43.5686 48.3898 44.4115C48.3898 45.2544 48.0326 46.0628 47.3969 46.6588C46.7611 47.2548 45.8989 47.5896 44.9998 47.5896C44.1007 47.5896 43.2385 47.2548 42.6027 46.6588C41.967 46.0628 41.6098 45.2544 41.6098 44.4115ZM28.0498 44.4115C28.0498 43.5686 28.407 42.7603 29.0427 42.1642C29.6785 41.5682 30.5407 41.2334 31.4398 41.2334C32.3389 41.2334 33.2011 41.5682 33.8369 42.1642C34.4726 42.7603 34.8298 43.5686 34.8298 44.4115C34.8298 45.2544 34.4726 46.0628 33.8369 46.6588C33.2011 47.2548 32.3389 47.5896 31.4398 47.5896C30.5407 47.5896 29.6785 47.2548 29.0427 46.6588C28.407 46.0628 28.0498 45.2544 28.0498 44.4115Z" fill="#404452"/>
<path fill-rule="evenodd" clip-rule="evenodd" d="M45 67.6C59.3533 67.6 67.6 59.3533 67.6 45C67.6 30.6467 59.3533 22.4 45 22.4C30.6467 22.4 22.4 30.6467 22.4 45C22.4 59.3533 30.6467 67.6 45 67.6ZM45 73.25C60.603 73.25 73.25 60.603 73.25 45C73.25 29.397 60.603 16.75 45 16.75C29.397 16.75 16.75 29.397 16.75 45C16.75 60.603 29.397 73.25 45 73.25Z" fill="#404452"/>
</svg>
