<svg width="120" height="120" viewBox="0 0 120 120" fill="none" xmlns="http://www.w3.org/2000/svg">
<path d="M60.0001 59.9998V99.9997M60.0001 59.9998V64.9998H75.0001C82.9566 64.9998 90.5872 61.839 96.2133 56.213C101.839 50.5869 105 42.9562 105 34.9998V29.9998H90.0001C82.0436 29.9998 74.413 33.1605 68.7869 38.7866C63.1608 44.4126 60.0001 52.0433 60.0001 59.9998ZM60.0001 49.9998V54.9998H45.0001C37.0436 54.9998 29.413 51.839 23.7869 46.213C18.1608 40.5869 15.0001 32.9562 15.0001 24.9998V19.9998H30.0001C37.9566 19.9998 45.5872 23.1605 51.2133 28.7866C56.8394 34.4126 60.0001 42.0433 60.0001 49.9998Z" stroke="white" stroke-width="6" stroke-linecap="round" stroke-linejoin="round"/>
</svg>
