<svg width="90" height="90" viewBox="0 0 90 90" fill="none" xmlns="http://www.w3.org/2000/svg">
<g clip-path="url(#clip0_778_2923)">
<path d="M63.25 15H25.75C24.7554 15 23.8016 15.3951 23.0983 16.0983C22.3951 16.8016 22 17.7554 22 18.75V71.25C22 72.2446 22.3951 73.1984 23.0983 73.9017C23.8016 74.6049 24.7554 75 25.75 75H63.25C64.2446 75 65.1984 74.6049 65.9016 73.9017C66.6049 73.1984 67 72.2446 67 71.25V18.75C67 17.7554 66.6049 16.8016 65.9016 16.0983C65.1984 15.3951 64.2446 15 63.25 15ZM35.125 60H31.375V56.25H35.125V60ZM35.125 52.5H31.375V48.75H35.125V52.5ZM35.125 45H31.375V41.25H35.125V45ZM35.125 37.5H31.375V33.75H35.125V37.5ZM35.125 30H31.375V26.25H35.125V30ZM57.625 60H38.875V56.25H57.625V60ZM57.625 52.5H38.875V48.75H57.625V52.5ZM57.625 45H38.875V41.25H57.625V45ZM57.625 37.5H38.875V33.75H57.625V37.5ZM57.625 30H38.875V26.25H57.625V30Z" fill="#404452"/>
</g>
<defs>
<clipPath id="clip0_778_2923">
<rect width="90" height="90" fill="white"/>
</clipPath>
</defs>
</svg>
