<svg width="90" height="90" viewBox="0 0 90 90" fill="none" xmlns="http://www.w3.org/2000/svg">
<path d="M22 33H67M38.875 43V58M50.125 43V58M24.8125 33L27.625 63C27.625 64.3261 28.2176 65.5979 29.2725 66.5355C30.3274 67.4732 31.7582 68 33.25 68H55.75C57.2418 68 58.6726 67.4732 59.7275 66.5355C60.7824 65.5979 61.375 64.3261 61.375 63L64.1875 33M36.0625 33V25.5C36.0625 24.837 36.3588 24.2011 36.8863 23.7322C37.4137 23.2634 38.1291 23 38.875 23H50.125C50.8709 23 51.5863 23.2634 52.1137 23.7322C52.6412 24.2011 52.9375 24.837 52.9375 25.5V33" stroke="#404452" stroke-width="6" stroke-linecap="round" stroke-linejoin="round"/>
</svg>
