<svg width="120" height="120" viewBox="0 0 120 120" fill="none" xmlns="http://www.w3.org/2000/svg">
<path d="M85.5 34.5H93.6667C96.0417 34.5 98 36.4583 98 38.8333V92.6667C98 95.0417 96.0417 97 93.6667 97H39.8333C37.4583 97 35.5 95.0417 35.5 92.6667V84.5H27.3333C24.9583 84.5 23 82.5417 23 80.1667V26.3333C23 23.9583 24.9583 22 27.3333 22H81.1667C83.5417 22 85.5 23.9583 85.5 26.3333V34.5ZM30.5 77H78V29.5H30.5V77ZM52.1667 40.75C52.1667 37.2917 49.375 34.5 45.9167 34.5C42.4583 34.5 39.6667 37.2917 39.6667 40.75C39.6667 44.2083 42.4583 47 45.9167 47C49.375 47 52.1667 44.2083 52.1667 40.75ZM60.5 59.5C60.5 59.5 64.6667 38.6667 73 38.6667V72H35.5V47C43.8333 47 43.8333 59.5 43.8333 59.5C43.8333 59.5 45.2083 51.1667 52.1667 51.1667C59.125 51.1667 60.5 59.5 60.5 59.5ZM90.5 89.5L91 41.5H85.5V80.1667C85.5 82.5417 83.5417 84.5 81.1667 84.5H43.8333V89.5H90.5Z" fill="white"/>
</svg>
